<?xml version="1.0" encoding="UTF-8" standalone="no"?>
<svg
   width="790.8783pt"
   height="793.03754pt"
   version="1.1"
   viewBox="0 0 790.8783 793.03754"
   id="svg42"
   sodipodi:docname="nautilus-image-copypaste.svg"
   inkscape:version="1.1.1 (3bf5ae0d25, 2021-09-20)"
   xmlns:inkscape="http://www.inkscape.org/namespaces/inkscape"
   xmlns:sodipodi="http://sodipodi.sourceforge.net/DTD/sodipodi-0.dtd"
   xmlns="http://www.w3.org/2000/svg"
   xmlns:svg="http://www.w3.org/2000/svg">
  <sodipodi:namedview
     id="namedview44"
     pagecolor="#ffffff"
     bordercolor="#666666"
     borderopacity="1.0"
     inkscape:pageshadow="2"
     inkscape:pageopacity="0.0"
     inkscape:pagecheckerboard="0"
     inkscape:document-units="pt"
     showgrid="false"
     fit-margin-top="0"
     fit-margin-left="0"
     fit-margin-right="0"
     fit-margin-bottom="0"
     inkscape:zoom="0.442602"
     inkscape:cx="535.46979"
     inkscape:cy="538.85884"
     inkscape:window-width="1687"
     inkscape:window-height="1666"
     inkscape:window-x="26"
     inkscape:window-y="23"
     inkscape:window-maximized="0"
     inkscape:current-layer="svg42" />
  <defs
     id="defs14">
    <clipPath
       id="d">
      <path
         d="M 568,442 H 977.86 V 977.86 H 568 Z"
         id="path2" />
    </clipPath>
    <clipPath
       id="c">
      <path
         d="M 820,442 H 977.86 V 600 H 820 Z"
         id="path5" />
    </clipPath>
    <clipPath
       id="b">
      <path
         d="M 288,222.14 H 594 V 349 H 288 Z"
         id="path8" />
    </clipPath>
    <clipPath
       id="a">
      <path
         d="M 222.14,269 H 532 V 884 H 222.14 Z"
         id="path11" />
    </clipPath>
  </defs>
  <rect
     width="790.8783"
     height="793.03754"
     fill="#ffffff"
     id="rect16"
     x="0"
     y="0" />
  <g
     clip-path="url(#d)"
     id="g20"
     style="fill:#26a269;stroke-width:0.0084375;stroke-miterlimit:4;stroke-dasharray:none;stroke:none;stroke-opacity:1"
     transform="translate(-204.10352,-204.39841)">
    <path
       d="M 934.53,977.86 H 611.84 c -23.898,0 -43.328,-19.43 -43.328,-43.328 v -448.64 c 0,-23.902 19.43,-43.328 43.328,-43.328 h 224.32 c 8.6875,0 15.742,7.0508 15.742,15.742 v 110.21 h 110.21 c 8.6914,0 15.742,7.0547 15.742,15.742 v 350.27 c 0.004,23.902 -19.426,43.332 -43.324,43.332 z M 611.84,474.05 c -6.5469,0 -11.84,5.3203 -11.84,11.84 v 448.64 c 0,6.5195 5.293,11.84 11.84,11.84 h 322.69 c 6.5508,0 11.84,-5.3203 11.84,-11.84 V 600 H 836.16 c -8.6914,0 -15.742,-7.0547 -15.742,-15.742 l -0.004,-110.21 z"
       fill="#296bb4"
       id="path3032"
       style="fill:#26a269;stroke-width:0.0084375;stroke-miterlimit:4;stroke-dasharray:none;stroke:none;stroke-opacity:1" />
  </g>
  <g
     clip-path="url(#c)"
     id="g24"
     style="fill:#26a269;stroke-width:0.0174375;stroke-miterlimit:4;stroke-dasharray:none;stroke:none;stroke-opacity:1"
     transform="translate(-204.10352,-204.39841)">
    <path
       d="m 962.11,600 c -4.0312,0 -8.0625,-1.543 -11.148,-4.5977 l -125.95,-125.95 c -6.1406,-6.1406 -6.1406,-16.121 0,-22.262 6.1406,-6.141 16.121,-6.1406 22.262,0 l 125.95,125.95 c 6.1406,6.1406 6.1406,16.121 0,22.262 C 970.1732,598.457 966.142,600 962.111,600 Z"
       fill="#296bb4"
       id="path3035"
       style="fill:#26a269;stroke-width:0.0174375;stroke-miterlimit:4;stroke-dasharray:none;stroke:none;stroke-opacity:1" />
  </g>
  <g
     clip-path="url(#b)"
     id="g34"
     transform="translate(-204.10352,-204.39841)"
     style="fill:#1a5fb4;stroke-width:0.0084375;stroke-miterlimit:4;stroke-dasharray:none;stroke:none;stroke-opacity:1">
    <path
       d="M 530.63,348.1 H 351.27 c -34.73,0 -62.977,-28.246 -62.977,-62.977 0,-34.73 28.246,-62.977 62.977,-62.977 h 179.36 c 34.73,0 62.977,28.246 62.977,62.977 0,34.73 -28.246,62.977 -62.977,62.977 z M 351.27,253.635 c -17.352,0 -31.488,14.105 -31.488,31.488 0,17.383 14.137,31.488 31.488,31.488 h 179.36 c 17.352,0 31.488,-14.105 31.488,-31.488 0,-17.383 -14.137,-31.488 -31.488,-31.488 z"
       fill="#296bb4"
       id="path3026"
       style="fill:#1a5fb4;stroke-width:0.0084375;stroke-miterlimit:4;stroke-dasharray:none;stroke:none;stroke-opacity:1" />
  </g>
  <path
     d="m 444.48648,203.24159 c -8.6914,0 -15.742,-7.0547 -15.742,-15.742 V 97.097593 l -54.977,-0.63281 c -8.6914,0 -15.742,-7.0547 -15.742,-15.742 0,-8.6914 7.0547,-15.742 15.742,-15.742 h 54.41 c 17.695,0 32.086,14.391 32.086,32.117 v 90.401997 c -0.0312,8.6875 -7.0547,15.742 -15.777,15.742 z"
     fill="#296bb4"
     id="path3029"
     style="fill:#1a5fb4;stroke-width:0.0084375;stroke-miterlimit:4;stroke-dasharray:none;stroke:none;stroke-opacity:1" />
  <g
     clip-path="url(#a)"
     id="g40"
     transform="translate(-204.10352,-204.39841)"
     style="fill:#1a5fb4;stroke-width:0.0084375;stroke-miterlimit:4;stroke-dasharray:none;stroke:none;stroke-opacity:1">
    <path
       d="M 515.64,883.39 H 254.23 c -17.695,0 -32.086,-14.391 -32.086,-32.117 v -549.78 c 0,-17.73 14.391,-32.121 32.086,-32.121 h 49.812 c 8.6914,0 15.742,7.0547 15.742,15.742 0,8.6914 -7.0547,15.742 -15.742,15.742 l -49.812,0.004 -0.59766,550.41 262.01,0.62891 c 8.6914,0 15.742,7.0547 15.742,15.742 0.004,8.6914 -7.0508,15.746 -15.742,15.746 z"
       fill="#296bb4"
       id="path3023"
       style="fill:#1a5fb4;stroke-width:0.0084375;stroke-miterlimit:4;stroke-dasharray:none;stroke:none;stroke-opacity:1" />
  </g>
  <text
     xml:space="preserve"
     style="font-size:18px;line-height:1.25;font-family:'Bitstream Vera Sans';-inkscape-font-specification:'Bitstream Vera Sans';letter-spacing:0px;word-spacing:0px;writing-mode:lr-tb;stroke-width:0.75"
     x="-136.95367"
     y="230.84349"
     id="text3178"><tspan
       sodipodi:role="line"
       id="tspan3176"
       style="stroke-width:0.75"
       x="-136.95367"
       y="230.84349">🗘</tspan></text>
  <path
     d="m 177.60679,299.4521 c -13.32871,0 -24.14368,10.60374 -24.14368,23.81182 v 72.08524 c -0.0953,0.47122 -0.0953,1.02414 0,1.58041 v 29.85798 c 0,13.21156 10.81454,24.00213 24.14368,24.00213 h 162.20485 c 13.3322,0 24.14368,-10.79232 24.14368,-24.00213 v -31.71716 c 0.0918,-0.2824 0.0918,-0.55972 0,-0.83531 l 0.002,-70.97034 c 0,-13.20807 -10.90293,-23.81181 -24.14368,-23.81181 h -162.2092 z m 0,5.21086 h 162.20485 c 10.44042,0 18.92412,8.27811 18.92412,18.60271 v 65.85746 l -27.1256,-22.79098 c -0.93395,-0.83531 -2.42591,-0.83531 -3.35986,0 l -32.81289,27.81109 -61.99017,-52.73563 c -0.55972,-0.46783 -1.39838,-0.65156 -2.14183,-0.55627 -0.37256,0.0918 -0.7468,0.18373 -1.02754,0.46441 l -71.50166,49.76547 v -67.81289 c 0,-10.32633 8.29861,-18.60446 18.82874,-18.60446 z m 118.20551,17.20951 c -10.07112,0 -18.17723,8.27813 -18.17723,18.2334 0,10.04368 8.1096,18.13803 18.17723,18.13803 9.97224,0 18.27258,-8.08912 18.27258,-18.13803 0.002,-9.95527 -8.29685,-18.2334 -18.27258,-18.2334 z m -1.39498,5.30275 c 0.46782,-0.0918 0.93055,0 1.39836,0 7.17717,0 12.9581,5.76524 12.9581,12.93065 0,7.16193 -5.77918,12.92762 -12.9581,12.92762 -7.18065,0 -12.96158,-5.76526 -12.96158,-12.92762 0.002,-6.70116 5.03405,-12.28262 11.56317,-12.93065 z m -62.83505,19.62485 62.09033,52.83579 c 0.93055,0.83531 2.51776,0.83531 3.44835,0 l 32.90479,-27.90647 28.71651,24.27955 v 30.78649 c 0,10.33154 -8.4837,18.78998 -18.92412,18.78998 l -162.20921,-0.002 c -10.53537,0 -18.83223,-8.45843 -18.83223,-18.78997 v -29.29791 z"
     fill="#296bb4"
     id="path20168"
     style="fill:#e5a50a;stroke-width:0.435508;stroke-miterlimit:4;stroke-dasharray:none" />
  <path
     d="m 488.5052,453.122 c -13.32871,0 -24.14368,10.60374 -24.14368,23.81182 v 72.08524 c -0.0953,0.47122 -0.0953,1.02414 0,1.58041 v 29.85798 c 0,13.21156 10.81454,24.00213 24.14368,24.00213 h 162.20485 c 13.3322,0 24.14368,-10.79232 24.14368,-24.00213 v -31.71716 c 0.0918,-0.2824 0.0918,-0.55972 0,-0.83531 l 0.002,-70.97034 c 0,-13.20807 -10.90293,-23.81181 -24.14368,-23.81181 h -162.2092 z m 0,5.21086 h 162.20485 c 10.44042,0 18.92412,8.27811 18.92412,18.60271 v 65.85746 l -27.1256,-22.79098 c -0.93395,-0.83531 -2.42591,-0.83531 -3.35986,0 l -32.81289,27.81109 -61.99017,-52.73563 c -0.55972,-0.46783 -1.39838,-0.65156 -2.14183,-0.55627 -0.37256,0.0918 -0.7468,0.18373 -1.02754,0.46441 l -71.50166,49.76547 v -67.81289 c 0,-10.32633 8.29861,-18.60446 18.82874,-18.60446 z m 118.20551,17.20951 c -10.07112,0 -18.17723,8.27813 -18.17723,18.2334 0,10.04368 8.1096,18.13803 18.17723,18.13803 9.97224,0 18.27258,-8.08912 18.27258,-18.13803 0.002,-9.95527 -8.29685,-18.2334 -18.27258,-18.2334 z m -1.39498,5.30275 c 0.46782,-0.0918 0.93055,0 1.39836,0 7.17717,0 12.9581,5.76524 12.9581,12.93065 0,7.16193 -5.77918,12.92762 -12.9581,12.92762 -7.18065,0 -12.96158,-5.76526 -12.96158,-12.92762 0.002,-6.70116 5.03405,-12.28262 11.56317,-12.93065 z m -62.83505,19.62485 62.09033,52.83579 c 0.93055,0.83531 2.51776,0.83531 3.44835,0 l 32.90479,-27.90647 28.71651,24.27955 v 30.78649 c 0,10.33154 -8.4837,18.78998 -18.92412,18.78998 l -162.20921,-0.002 c -10.53537,0 -18.83223,-8.45843 -18.83223,-18.78997 v -29.29791 z"
     fill="#296bb4"
     id="path20168-3"
     style="fill:#e5a50a;stroke-width:0.435508;stroke-miterlimit:4;stroke-dasharray:none" />
  <g
     id="g17085"
     transform="matrix(1.1449796,0,0,1.1449796,-33.289238,-26.847327)"
     style="fill:#9141ac">
    <g
       id="g19862"
       transform="matrix(0.20388653,0.33360922,-0.33360922,0.20388653,421.92414,96.452025)"
       style="fill:#9141ac">
      <path
         d="m 631.79639,425.91059 c 4.6602,1.8906 10.078,0.88281 13.73,-2.7695 l 106.55,-106.55 c 4.9141,-4.9141 4.9141,-12.848 0,-17.758 l -106.55,-106.56 c -3.6523,-3.6523 -9.0703,-4.6602 -13.73,-2.7695 -4.7852,1.8906 -7.8086,6.5508 -7.8086,11.586 v 43.578 c -137.04,6.5508 -246.36,120.16 -246.36,258.71001 0,19.27 2.0156,38.039 6.1719,56.047 1.2578,5.793 6.4219,9.8242 12.219,9.8242 h 0.125 c 5.793,0 10.957,-4.1562 12.219,-9.9492 22.293,-102.15 111.85,-177.34 215.63,-183.01 v 38.039 c 0,5.0391 3.0234,9.5742 7.8086,11.586 z"
         fill="#296bb4"
         id="path17081"
         style="fill:#9141ac" />
      <path
         d="m 627.64639,814.60059 c 2.3945,2.3945 5.668,3.6523 8.9414,3.6523 1.6367,0 3.2734,-0.25 4.7852,-0.8828 4.7891,-2.0156 7.8125,-6.54691 7.8125,-11.71101 v -43.45299 c 136.91,-6.6758 246.36,-120.16 246.36,-258.71 0,-19.27 -2.0156,-38.164 -6.1719,-56.176 -1.2578,-5.668 -6.4219,-9.6992 -12.219,-9.6992 h -0.125 c -5.918,0 -10.957,4.1562 -12.219,9.8242 -22.293,102.15 -111.84,177.47 -215.63,183.14 v -38.039 c 0,-5.0391 -3.0234,-9.6992 -7.8086,-11.586 -4.6602,-2.0156 -10.078,-0.88281 -13.73,2.6445 l -106.55,106.67999 c -4.9141,4.9141 -4.9141,12.848 0,17.75801 z"
         fill="#296bb4"
         id="path17083"
         style="fill:#9141ac" />
    </g>
  </g>
</svg>
